<mxfile host="Electron" agent="Mozilla/5.0 (X11; Linux x86_64) AppleWebKit/537.36 (KHTML, like Gecko) draw.io/27.0.9 Chrome/134.0.6998.205 Electron/35.4.0 Safari/537.36" version="27.0.9">
  <diagram name="Page-1" id="HtUO2uOvPFWYcnqxTXo9">
    <mxGraphModel dx="1679" dy="992" grid="1" gridSize="10" guides="1" tooltips="1" connect="1" arrows="1" fold="1" page="1" pageScale="1" pageWidth="1654" pageHeight="2336" math="0" shadow="0">
      <root>
        <mxCell id="0" />
        <mxCell id="1" parent="0" />
        <mxCell id="lGtn-BnxQWjLCPMU3sU2-4" value="" style="rounded=0;whiteSpace=wrap;html=1;" vertex="1" parent="1">
          <mxGeometry x="470" y="130" width="800" height="1340" as="geometry" />
        </mxCell>
        <mxCell id="lGtn-BnxQWjLCPMU3sU2-5" value="&lt;h2&gt;&lt;font style=&quot;font-size: 14px;&quot;&gt;MyWaze&lt;/font&gt;&lt;/h2&gt;" style="text;html=1;align=center;verticalAlign=middle;resizable=0;points=[];autosize=1;strokeColor=none;fillColor=none;" vertex="1" parent="1">
          <mxGeometry x="830" y="130" width="80" height="60" as="geometry" />
        </mxCell>
        <mxCell id="lGtn-BnxQWjLCPMU3sU2-6" value="User" style="shape=umlActor;html=1;verticalLabelPosition=bottom;verticalAlign=top;align=center;" vertex="1" parent="1">
          <mxGeometry x="360" y="530" width="30" height="60" as="geometry" />
        </mxCell>
        <mxCell id="lGtn-BnxQWjLCPMU3sU2-7" value="Spotify" style="shape=umlActor;html=1;verticalLabelPosition=bottom;verticalAlign=top;align=center;" vertex="1" parent="1">
          <mxGeometry x="380" y="250" width="30" height="60" as="geometry" />
        </mxCell>
        <mxCell id="lGtn-BnxQWjLCPMU3sU2-8" value="GPS" style="shape=umlActor;html=1;verticalLabelPosition=bottom;verticalAlign=top;align=center;" vertex="1" parent="1">
          <mxGeometry x="360" y="850" width="30" height="60" as="geometry" />
        </mxCell>
        <mxCell id="lGtn-BnxQWjLCPMU3sU2-9" value="Other Users" style="shape=umlActor;html=1;verticalLabelPosition=bottom;verticalAlign=top;align=center;" vertex="1" parent="1">
          <mxGeometry x="360" y="1330" width="30" height="60" as="geometry" />
        </mxCell>
        <mxCell id="lGtn-BnxQWjLCPMU3sU2-10" value="Traffic Data" style="shape=umlActor;html=1;verticalLabelPosition=bottom;verticalAlign=top;align=center;" vertex="1" parent="1">
          <mxGeometry x="360" y="1110" width="30" height="60" as="geometry" />
        </mxCell>
        <mxCell id="lGtn-BnxQWjLCPMU3sU2-11" value="Navigation Engine" style="shape=umlActor;html=1;verticalLabelPosition=bottom;verticalAlign=top;align=center;" vertex="1" parent="1">
          <mxGeometry x="1320" y="1110" width="30" height="60" as="geometry" />
        </mxCell>
        <mxCell id="lGtn-BnxQWjLCPMU3sU2-13" value="Register Account" style="ellipse;whiteSpace=wrap;html=1;" vertex="1" parent="1">
          <mxGeometry x="722" y="310" width="105" height="60" as="geometry" />
        </mxCell>
        <mxCell id="lGtn-BnxQWjLCPMU3sU2-15" value="Request Points of Interest" style="ellipse;whiteSpace=wrap;html=1;" vertex="1" parent="1">
          <mxGeometry x="871.37" y="640" width="110" height="70" as="geometry" />
        </mxCell>
        <mxCell id="lGtn-BnxQWjLCPMU3sU2-17" value="Define Multi-Stop Route" style="ellipse;whiteSpace=wrap;html=1;" vertex="1" parent="1">
          <mxGeometry x="762.5" y="585" width="87.5" height="55" as="geometry" />
        </mxCell>
        <mxCell id="lGtn-BnxQWjLCPMU3sU2-18" value="Define Route" style="ellipse;whiteSpace=wrap;html=1;" vertex="1" parent="1">
          <mxGeometry x="750" y="450" width="107.5" height="50" as="geometry" />
        </mxCell>
        <mxCell id="lGtn-BnxQWjLCPMU3sU2-22" value="Add a Stop" style="ellipse;whiteSpace=wrap;html=1;" vertex="1" parent="1">
          <mxGeometry x="1060" y="625" width="115" height="60" as="geometry" />
        </mxCell>
        <mxCell id="lGtn-BnxQWjLCPMU3sU2-23" value="Input Final &amp;amp; Starting Location" style="ellipse;whiteSpace=wrap;html=1;" vertex="1" parent="1">
          <mxGeometry x="1065" y="505" width="105" height="65" as="geometry" />
        </mxCell>
        <mxCell id="lGtn-BnxQWjLCPMU3sU2-24" value="Receive Voice Instructions" style="ellipse;whiteSpace=wrap;html=1;" vertex="1" parent="1">
          <mxGeometry x="1050" y="940" width="110" height="60" as="geometry" />
        </mxCell>
        <mxCell id="lGtn-BnxQWjLCPMU3sU2-25" value="Mute/Unmute Voice Guidance (optional)" style="ellipse;whiteSpace=wrap;html=1;" vertex="1" parent="1">
          <mxGeometry x="902.5" y="790" width="130" height="60" as="geometry" />
        </mxCell>
        <mxCell id="lGtn-BnxQWjLCPMU3sU2-26" value="Get Alerts for Incidents" style="ellipse;whiteSpace=wrap;html=1;" vertex="1" parent="1">
          <mxGeometry x="772" y="840" width="110" height="60" as="geometry" />
        </mxCell>
        <mxCell id="lGtn-BnxQWjLCPMU3sU2-27" value="Re-route If Off Path or Traffic Ahead" style="ellipse;whiteSpace=wrap;html=1;" vertex="1" parent="1">
          <mxGeometry x="787.5" y="1130" width="115" height="60" as="geometry" />
        </mxCell>
        <mxCell id="lGtn-BnxQWjLCPMU3sU2-28" value="Open Report Menu" style="ellipse;whiteSpace=wrap;html=1;" vertex="1" parent="1">
          <mxGeometry x="1032.5" y="750" width="110" height="60" as="geometry" />
        </mxCell>
        <mxCell id="lGtn-BnxQWjLCPMU3sU2-29" value="Select Incident Type" style="ellipse;whiteSpace=wrap;html=1;" vertex="1" parent="1">
          <mxGeometry x="510" y="730" width="110" height="60" as="geometry" />
        </mxCell>
        <mxCell id="lGtn-BnxQWjLCPMU3sU2-30" value="Submit Report" style="ellipse;whiteSpace=wrap;html=1;" vertex="1" parent="1">
          <mxGeometry x="510" y="800" width="110" height="60" as="geometry" />
        </mxCell>
        <mxCell id="lGtn-BnxQWjLCPMU3sU2-31" value="Notify Other Users" style="ellipse;whiteSpace=wrap;html=1;" vertex="1" parent="1">
          <mxGeometry x="630" y="1340" width="110" height="60" as="geometry" />
        </mxCell>
        <mxCell id="lGtn-BnxQWjLCPMU3sU2-32" value="Spotify Integration" style="ellipse;whiteSpace=wrap;html=1;" vertex="1" parent="1">
          <mxGeometry x="640" y="240" width="110" height="60" as="geometry" />
        </mxCell>
        <mxCell id="lGtn-BnxQWjLCPMU3sU2-34" value="Control Music Actions" style="ellipse;whiteSpace=wrap;html=1;" vertex="1" parent="1">
          <mxGeometry x="510" y="200" width="110" height="60" as="geometry" />
        </mxCell>
        <mxCell id="lGtn-BnxQWjLCPMU3sU2-37" value="Calculate ETA" style="ellipse;whiteSpace=wrap;html=1;" vertex="1" parent="1">
          <mxGeometry x="882" y="512.5" width="88.75" height="50" as="geometry" />
        </mxCell>
        <mxCell id="lGtn-BnxQWjLCPMU3sU2-39" value="Register Vehicle" style="ellipse;whiteSpace=wrap;html=1;" vertex="1" parent="1">
          <mxGeometry x="758.75" y="380" width="95" height="50" as="geometry" />
        </mxCell>
        <mxCell id="lGtn-BnxQWjLCPMU3sU2-43" value="Query Data from DB" style="ellipse;whiteSpace=wrap;html=1;" vertex="1" parent="1">
          <mxGeometry x="1100" y="300" width="100" height="50" as="geometry" />
        </mxCell>
        <mxCell id="lGtn-BnxQWjLCPMU3sU2-44" value="Save Data to DB" style="ellipse;whiteSpace=wrap;html=1;" vertex="1" parent="1">
          <mxGeometry x="990" y="300" width="90" height="50" as="geometry" />
        </mxCell>
        <mxCell id="lGtn-BnxQWjLCPMU3sU2-46" value="" style="edgeStyle=none;html=1;endArrow=none;verticalAlign=bottom;rounded=0;entryX=0;entryY=1;entryDx=0;entryDy=0;" edge="1" parent="1" source="lGtn-BnxQWjLCPMU3sU2-6" target="lGtn-BnxQWjLCPMU3sU2-13">
          <mxGeometry width="160" relative="1" as="geometry">
            <mxPoint x="380" y="520" as="sourcePoint" />
            <mxPoint x="495" y="450" as="targetPoint" />
          </mxGeometry>
        </mxCell>
        <mxCell id="lGtn-BnxQWjLCPMU3sU2-47" value="" style="edgeStyle=none;html=1;endArrow=none;verticalAlign=bottom;rounded=0;" edge="1" parent="1" source="lGtn-BnxQWjLCPMU3sU2-6" target="lGtn-BnxQWjLCPMU3sU2-39">
          <mxGeometry width="160" relative="1" as="geometry">
            <mxPoint x="390" y="520" as="sourcePoint" />
            <mxPoint x="495" y="450" as="targetPoint" />
          </mxGeometry>
        </mxCell>
        <mxCell id="lGtn-BnxQWjLCPMU3sU2-51" value="" style="edgeStyle=none;html=1;endArrow=none;verticalAlign=bottom;rounded=0;" edge="1" parent="1" source="lGtn-BnxQWjLCPMU3sU2-6" target="lGtn-BnxQWjLCPMU3sU2-18">
          <mxGeometry width="160" relative="1" as="geometry">
            <mxPoint x="400" y="530" as="sourcePoint" />
            <mxPoint x="495" y="450" as="targetPoint" />
          </mxGeometry>
        </mxCell>
        <mxCell id="lGtn-BnxQWjLCPMU3sU2-52" value="" style="edgeStyle=none;html=1;endArrow=none;verticalAlign=bottom;rounded=0;" edge="1" parent="1" source="lGtn-BnxQWjLCPMU3sU2-6" target="lGtn-BnxQWjLCPMU3sU2-17">
          <mxGeometry width="160" relative="1" as="geometry">
            <mxPoint x="400" y="550" as="sourcePoint" />
            <mxPoint x="495" y="450" as="targetPoint" />
          </mxGeometry>
        </mxCell>
        <mxCell id="lGtn-BnxQWjLCPMU3sU2-53" value="" style="edgeStyle=none;html=1;endArrow=none;verticalAlign=bottom;rounded=0;" edge="1" parent="1" source="lGtn-BnxQWjLCPMU3sU2-6" target="lGtn-BnxQWjLCPMU3sU2-15">
          <mxGeometry width="160" relative="1" as="geometry">
            <mxPoint x="400" y="580" as="sourcePoint" />
            <mxPoint x="495" y="450" as="targetPoint" />
          </mxGeometry>
        </mxCell>
        <mxCell id="lGtn-BnxQWjLCPMU3sU2-57" value="" style="edgeStyle=none;html=1;endArrow=none;verticalAlign=bottom;rounded=0;" edge="1" parent="1" source="lGtn-BnxQWjLCPMU3sU2-6" target="lGtn-BnxQWjLCPMU3sU2-28">
          <mxGeometry width="160" relative="1" as="geometry">
            <mxPoint x="400" y="580" as="sourcePoint" />
            <mxPoint x="495" y="450" as="targetPoint" />
          </mxGeometry>
        </mxCell>
        <mxCell id="lGtn-BnxQWjLCPMU3sU2-58" value="" style="edgeStyle=none;html=1;endArrow=none;verticalAlign=bottom;rounded=0;" edge="1" parent="1" source="lGtn-BnxQWjLCPMU3sU2-6" target="lGtn-BnxQWjLCPMU3sU2-29">
          <mxGeometry width="160" relative="1" as="geometry">
            <mxPoint x="400" y="580" as="sourcePoint" />
            <mxPoint x="495" y="450" as="targetPoint" />
          </mxGeometry>
        </mxCell>
        <mxCell id="lGtn-BnxQWjLCPMU3sU2-59" value="" style="edgeStyle=none;html=1;endArrow=none;verticalAlign=bottom;rounded=0;" edge="1" parent="1" source="lGtn-BnxQWjLCPMU3sU2-8" target="lGtn-BnxQWjLCPMU3sU2-30">
          <mxGeometry width="160" relative="1" as="geometry">
            <mxPoint x="430" y="920" as="sourcePoint" />
            <mxPoint x="376" y="883" as="targetPoint" />
          </mxGeometry>
        </mxCell>
        <mxCell id="lGtn-BnxQWjLCPMU3sU2-60" value="" style="edgeStyle=none;html=1;endArrow=none;verticalAlign=bottom;rounded=0;exitX=0.837;exitY=0.761;exitDx=0;exitDy=0;exitPerimeter=0;" edge="1" parent="1" source="lGtn-BnxQWjLCPMU3sU2-9" target="lGtn-BnxQWjLCPMU3sU2-31">
          <mxGeometry width="160" relative="1" as="geometry">
            <mxPoint x="430" y="920" as="sourcePoint" />
            <mxPoint x="376" y="883" as="targetPoint" />
          </mxGeometry>
        </mxCell>
        <mxCell id="lGtn-BnxQWjLCPMU3sU2-61" value="" style="edgeStyle=none;html=1;endArrow=none;verticalAlign=bottom;rounded=0;" edge="1" parent="1" source="lGtn-BnxQWjLCPMU3sU2-6" target="lGtn-BnxQWjLCPMU3sU2-24">
          <mxGeometry width="160" relative="1" as="geometry">
            <mxPoint x="400" y="580" as="sourcePoint" />
            <mxPoint x="495" y="450" as="targetPoint" />
          </mxGeometry>
        </mxCell>
        <mxCell id="lGtn-BnxQWjLCPMU3sU2-62" value="" style="edgeStyle=none;html=1;endArrow=none;verticalAlign=bottom;rounded=0;" edge="1" parent="1" source="lGtn-BnxQWjLCPMU3sU2-11" target="lGtn-BnxQWjLCPMU3sU2-24">
          <mxGeometry width="160" relative="1" as="geometry">
            <mxPoint x="400" y="580" as="sourcePoint" />
            <mxPoint x="495" y="450" as="targetPoint" />
          </mxGeometry>
        </mxCell>
        <mxCell id="lGtn-BnxQWjLCPMU3sU2-63" value="" style="edgeStyle=none;html=1;endArrow=none;verticalAlign=bottom;rounded=0;" edge="1" parent="1" source="lGtn-BnxQWjLCPMU3sU2-8" target="lGtn-BnxQWjLCPMU3sU2-24">
          <mxGeometry width="160" relative="1" as="geometry">
            <mxPoint x="400" y="580" as="sourcePoint" />
            <mxPoint x="495" y="450" as="targetPoint" />
          </mxGeometry>
        </mxCell>
        <mxCell id="lGtn-BnxQWjLCPMU3sU2-65" value="" style="edgeStyle=none;html=1;endArrow=none;verticalAlign=bottom;rounded=0;" edge="1" parent="1" source="lGtn-BnxQWjLCPMU3sU2-11" target="lGtn-BnxQWjLCPMU3sU2-27">
          <mxGeometry width="160" relative="1" as="geometry">
            <mxPoint x="400" y="580" as="sourcePoint" />
            <mxPoint x="495" y="450" as="targetPoint" />
          </mxGeometry>
        </mxCell>
        <mxCell id="lGtn-BnxQWjLCPMU3sU2-66" value="" style="edgeStyle=none;html=1;endArrow=none;verticalAlign=bottom;rounded=0;" edge="1" parent="1" source="lGtn-BnxQWjLCPMU3sU2-8" target="lGtn-BnxQWjLCPMU3sU2-27">
          <mxGeometry width="160" relative="1" as="geometry">
            <mxPoint x="400" y="580" as="sourcePoint" />
            <mxPoint x="495" y="450" as="targetPoint" />
          </mxGeometry>
        </mxCell>
        <mxCell id="lGtn-BnxQWjLCPMU3sU2-68" value="" style="edgeStyle=none;html=1;endArrow=none;verticalAlign=bottom;rounded=0;" edge="1" parent="1" source="lGtn-BnxQWjLCPMU3sU2-10" target="lGtn-BnxQWjLCPMU3sU2-27">
          <mxGeometry width="160" relative="1" as="geometry">
            <mxPoint x="400" y="580" as="sourcePoint" />
            <mxPoint x="495" y="450" as="targetPoint" />
          </mxGeometry>
        </mxCell>
        <mxCell id="lGtn-BnxQWjLCPMU3sU2-69" value="" style="edgeStyle=none;html=1;endArrow=none;verticalAlign=bottom;rounded=0;" edge="1" parent="1" source="lGtn-BnxQWjLCPMU3sU2-10" target="lGtn-BnxQWjLCPMU3sU2-26">
          <mxGeometry width="160" relative="1" as="geometry">
            <mxPoint x="400" y="580" as="sourcePoint" />
            <mxPoint x="495" y="450" as="targetPoint" />
          </mxGeometry>
        </mxCell>
        <mxCell id="lGtn-BnxQWjLCPMU3sU2-71" value="" style="edgeStyle=none;html=1;endArrow=none;verticalAlign=bottom;rounded=0;" edge="1" parent="1" source="lGtn-BnxQWjLCPMU3sU2-8" target="lGtn-BnxQWjLCPMU3sU2-26">
          <mxGeometry width="160" relative="1" as="geometry">
            <mxPoint x="400" y="580" as="sourcePoint" />
            <mxPoint x="495" y="450" as="targetPoint" />
          </mxGeometry>
        </mxCell>
        <mxCell id="lGtn-BnxQWjLCPMU3sU2-74" value="" style="edgeStyle=none;html=1;endArrow=none;verticalAlign=bottom;rounded=0;" edge="1" parent="1" source="lGtn-BnxQWjLCPMU3sU2-6" target="lGtn-BnxQWjLCPMU3sU2-25">
          <mxGeometry width="160" relative="1" as="geometry">
            <mxPoint x="400" y="550" as="sourcePoint" />
            <mxPoint x="495" y="450" as="targetPoint" />
          </mxGeometry>
        </mxCell>
        <mxCell id="lGtn-BnxQWjLCPMU3sU2-75" value="" style="edgeStyle=none;html=1;endArrow=none;verticalAlign=bottom;rounded=0;" edge="1" parent="1" source="lGtn-BnxQWjLCPMU3sU2-6" target="lGtn-BnxQWjLCPMU3sU2-26">
          <mxGeometry width="160" relative="1" as="geometry">
            <mxPoint x="400" y="580" as="sourcePoint" />
            <mxPoint x="495" y="450" as="targetPoint" />
          </mxGeometry>
        </mxCell>
        <mxCell id="lGtn-BnxQWjLCPMU3sU2-76" value="" style="edgeStyle=none;html=1;endArrow=none;verticalAlign=bottom;rounded=0;" edge="1" parent="1" source="lGtn-BnxQWjLCPMU3sU2-6" target="lGtn-BnxQWjLCPMU3sU2-32">
          <mxGeometry width="160" relative="1" as="geometry">
            <mxPoint x="400" y="580" as="sourcePoint" />
            <mxPoint x="495" y="450" as="targetPoint" />
          </mxGeometry>
        </mxCell>
        <mxCell id="lGtn-BnxQWjLCPMU3sU2-77" value="" style="edgeStyle=none;html=1;endArrow=none;verticalAlign=bottom;rounded=0;" edge="1" parent="1" source="lGtn-BnxQWjLCPMU3sU2-7" target="lGtn-BnxQWjLCPMU3sU2-34">
          <mxGeometry width="160" relative="1" as="geometry">
            <mxPoint x="460" y="950" as="sourcePoint" />
            <mxPoint x="495" y="450" as="targetPoint" />
          </mxGeometry>
        </mxCell>
        <mxCell id="lGtn-BnxQWjLCPMU3sU2-78" value="" style="edgeStyle=none;html=1;endArrow=none;verticalAlign=bottom;rounded=0;" edge="1" parent="1" source="lGtn-BnxQWjLCPMU3sU2-6" target="lGtn-BnxQWjLCPMU3sU2-34">
          <mxGeometry width="160" relative="1" as="geometry">
            <mxPoint x="460" y="950" as="sourcePoint" />
            <mxPoint x="495" y="450" as="targetPoint" />
          </mxGeometry>
        </mxCell>
        <mxCell id="lGtn-BnxQWjLCPMU3sU2-84" value="&amp;lt;&amp;lt;include&amp;gt;&amp;gt;" style="edgeStyle=none;html=1;endArrow=open;verticalAlign=bottom;dashed=1;labelBackgroundColor=none;rounded=0;" edge="1" parent="1" source="lGtn-BnxQWjLCPMU3sU2-15" target="lGtn-BnxQWjLCPMU3sU2-22">
          <mxGeometry x="-0.2536" y="1" width="160" relative="1" as="geometry">
            <mxPoint x="1040" y="670" as="sourcePoint" />
            <mxPoint x="1200" y="670" as="targetPoint" />
            <mxPoint as="offset" />
          </mxGeometry>
        </mxCell>
        <mxCell id="lGtn-BnxQWjLCPMU3sU2-85" value="&amp;lt;&amp;lt;include&amp;gt;&amp;gt;" style="edgeStyle=none;html=1;endArrow=open;verticalAlign=bottom;dashed=1;labelBackgroundColor=none;rounded=0;" edge="1" parent="1" source="lGtn-BnxQWjLCPMU3sU2-17" target="lGtn-BnxQWjLCPMU3sU2-22">
          <mxGeometry width="160" relative="1" as="geometry">
            <mxPoint x="1040" y="670" as="sourcePoint" />
            <mxPoint x="1200" y="670" as="targetPoint" />
          </mxGeometry>
        </mxCell>
        <mxCell id="lGtn-BnxQWjLCPMU3sU2-86" value="&amp;lt;&amp;lt;include&amp;gt;&amp;gt;" style="edgeStyle=none;endArrow=open;verticalAlign=bottom;dashed=1;labelBackgroundColor=default;rounded=0;horizontal=1;html=1;" edge="1" parent="1" source="lGtn-BnxQWjLCPMU3sU2-17" target="lGtn-BnxQWjLCPMU3sU2-23">
          <mxGeometry x="-0.007" y="-10" width="160" relative="1" as="geometry">
            <mxPoint x="1040" y="670" as="sourcePoint" />
            <mxPoint x="1200" y="670" as="targetPoint" />
            <mxPoint as="offset" />
          </mxGeometry>
        </mxCell>
        <mxCell id="lGtn-BnxQWjLCPMU3sU2-87" value="&amp;lt;&amp;lt;include&amp;gt;&amp;gt;" style="edgeStyle=none;html=1;endArrow=open;verticalAlign=bottom;dashed=1;labelBackgroundColor=none;rounded=0;" edge="1" parent="1" source="lGtn-BnxQWjLCPMU3sU2-18" target="lGtn-BnxQWjLCPMU3sU2-23">
          <mxGeometry width="160" relative="1" as="geometry">
            <mxPoint x="1040" y="670" as="sourcePoint" />
            <mxPoint x="1200" y="670" as="targetPoint" />
          </mxGeometry>
        </mxCell>
        <mxCell id="lGtn-BnxQWjLCPMU3sU2-88" value="&amp;lt;&amp;lt;include&amp;gt;&amp;gt;" style="edgeStyle=none;endArrow=open;verticalAlign=bottom;dashed=1;labelBackgroundColor=default;rounded=0;horizontal=1;html=1;" edge="1" parent="1" source="lGtn-BnxQWjLCPMU3sU2-17" target="lGtn-BnxQWjLCPMU3sU2-37">
          <mxGeometry x="-0.007" y="-10" width="160" relative="1" as="geometry">
            <mxPoint x="1040" y="670" as="sourcePoint" />
            <mxPoint x="1200" y="670" as="targetPoint" />
            <mxPoint as="offset" />
          </mxGeometry>
        </mxCell>
        <mxCell id="lGtn-BnxQWjLCPMU3sU2-89" value="&amp;lt;&amp;lt;include&amp;gt;&amp;gt;" style="edgeStyle=none;endArrow=open;verticalAlign=bottom;dashed=1;labelBackgroundColor=default;rounded=0;horizontal=1;html=1;" edge="1" parent="1" source="lGtn-BnxQWjLCPMU3sU2-18" target="lGtn-BnxQWjLCPMU3sU2-37">
          <mxGeometry x="-0.007" y="-10" width="160" relative="1" as="geometry">
            <mxPoint x="1040" y="670" as="sourcePoint" />
            <mxPoint x="1200" y="670" as="targetPoint" />
            <mxPoint as="offset" />
          </mxGeometry>
        </mxCell>
        <mxCell id="lGtn-BnxQWjLCPMU3sU2-90" value="&amp;lt;&amp;lt;include&amp;gt;&amp;gt;" style="edgeStyle=orthogonalEdgeStyle;endArrow=open;verticalAlign=bottom;dashed=1;labelBackgroundColor=default;rounded=0;horizontal=1;html=1;" edge="1" parent="1" source="lGtn-BnxQWjLCPMU3sU2-18" target="lGtn-BnxQWjLCPMU3sU2-44">
          <mxGeometry x="0.2066" y="5" width="160" relative="1" as="geometry">
            <mxPoint x="1040" y="670" as="sourcePoint" />
            <mxPoint x="920" y="410" as="targetPoint" />
            <Array as="points">
              <mxPoint x="900" y="475" />
              <mxPoint x="900" y="405" />
            </Array>
            <mxPoint as="offset" />
          </mxGeometry>
        </mxCell>
        <mxCell id="lGtn-BnxQWjLCPMU3sU2-91" value="" style="edgeStyle=orthogonalEdgeStyle;endArrow=open;verticalAlign=bottom;dashed=1;labelBackgroundColor=default;rounded=0;horizontal=1;html=1;" edge="1" parent="1" source="lGtn-BnxQWjLCPMU3sU2-39" target="lGtn-BnxQWjLCPMU3sU2-44">
          <mxGeometry x="-0.007" y="-10" width="160" relative="1" as="geometry">
            <mxPoint x="1040" y="670" as="sourcePoint" />
            <mxPoint x="1200" y="670" as="targetPoint" />
            <mxPoint as="offset" />
          </mxGeometry>
        </mxCell>
        <mxCell id="lGtn-BnxQWjLCPMU3sU2-92" value="" style="edgeStyle=orthogonalEdgeStyle;endArrow=open;verticalAlign=bottom;dashed=1;labelBackgroundColor=default;rounded=0;horizontal=1;html=1;" edge="1" parent="1" source="lGtn-BnxQWjLCPMU3sU2-13" target="lGtn-BnxQWjLCPMU3sU2-44">
          <mxGeometry x="-0.006" y="-15" width="160" relative="1" as="geometry">
            <mxPoint x="1040" y="670" as="sourcePoint" />
            <mxPoint x="1200" y="670" as="targetPoint" />
            <Array as="points">
              <mxPoint x="900" y="340" />
              <mxPoint x="900" y="405" />
              <mxPoint x="1035" y="405" />
            </Array>
            <mxPoint as="offset" />
          </mxGeometry>
        </mxCell>
        <mxCell id="lGtn-BnxQWjLCPMU3sU2-97" value="" style="edgeStyle=orthogonalEdgeStyle;endArrow=open;verticalAlign=bottom;dashed=1;labelBackgroundColor=default;rounded=0;horizontal=1;html=1;" edge="1" parent="1" source="lGtn-BnxQWjLCPMU3sU2-13" target="lGtn-BnxQWjLCPMU3sU2-43">
          <mxGeometry x="-0.006" y="-15" width="160" relative="1" as="geometry">
            <mxPoint x="1040" y="670" as="sourcePoint" />
            <mxPoint x="1200" y="670" as="targetPoint" />
            <Array as="points">
              <mxPoint x="900" y="340" />
              <mxPoint x="900" y="405" />
              <mxPoint x="1150" y="405" />
            </Array>
            <mxPoint as="offset" />
          </mxGeometry>
        </mxCell>
      </root>
    </mxGraphModel>
  </diagram>
</mxfile>
